<mxfile host="Electron" modified="2023-06-20T14:14:32.186Z" agent="Mozilla/5.0 (X11; Linux x86_64) AppleWebKit/537.36 (KHTML, like Gecko) draw.io/21.4.0 Chrome/106.0.5249.199 Electron/21.4.4 Safari/537.36" etag="cOhQX2GEQDuICdMHd6M0" version="21.4.0" type="device">
  <diagram name="Page-1" id="qQCsbmFtiBFMgOcqyGXc">
    <mxGraphModel dx="2167" dy="960" grid="1" gridSize="10" guides="1" tooltips="1" connect="1" arrows="1" fold="1" page="1" pageScale="1" pageWidth="850" pageHeight="1100" math="1" shadow="0">
      <root>
        <mxCell id="0" />
        <mxCell id="1" parent="0" />
        <mxCell id="98bF5p4SYVcPBmFiXfol-10" value="&lt;font style=&quot;font-size: 24px;&quot;&gt;$$y_i$$&lt;/font&gt;" style="rounded=0;whiteSpace=wrap;html=1;strokeColor=none;fillColor=none;" parent="1" vertex="1">
          <mxGeometry x="150" y="17" width="120" height="60" as="geometry" />
        </mxCell>
        <mxCell id="iW6FGo1nIYDNEF5uSiKR-5" value="" style="edgeStyle=orthogonalEdgeStyle;rounded=0;orthogonalLoop=1;jettySize=auto;html=1;" parent="1" source="7nbwtN7D6u6dlneCxtmq-1" target="iW6FGo1nIYDNEF5uSiKR-2" edge="1">
          <mxGeometry relative="1" as="geometry" />
        </mxCell>
        <mxCell id="7nbwtN7D6u6dlneCxtmq-1" value="&lt;div style=&quot;font-size: 24px;&quot;&gt;&lt;font style=&quot;font-size: 24px;&quot;&gt;$$\textbf{x}_i$$&lt;/font&gt;&lt;/div&gt;" style="ellipse;whiteSpace=wrap;html=1;aspect=fixed;fillColor=none;" parent="1" vertex="1">
          <mxGeometry x="170" y="462" width="80" height="78" as="geometry" />
        </mxCell>
        <mxCell id="7nbwtN7D6u6dlneCxtmq-3" value="&lt;font style=&quot;font-size: 24px;&quot;&gt;$$f$$&lt;/font&gt;" style="ellipse;whiteSpace=wrap;html=1;aspect=fixed;fillColor=none;" parent="1" vertex="1">
          <mxGeometry x="170" y="68" width="80" height="80" as="geometry" />
        </mxCell>
        <mxCell id="gjjCGxOiEG8Ti1tQG0iB-14" value="" style="edgeStyle=orthogonalEdgeStyle;rounded=0;orthogonalLoop=1;jettySize=auto;html=1;fontSize=24;exitX=0.5;exitY=0;exitDx=0;exitDy=0;entryX=0.5;entryY=1;entryDx=0;entryDy=0;" parent="1" source="gjjCGxOiEG8Ti1tQG0iB-1" target="7nbwtN7D6u6dlneCxtmq-3" edge="1">
          <mxGeometry relative="1" as="geometry">
            <mxPoint x="354" y="380" as="targetPoint" />
          </mxGeometry>
        </mxCell>
        <mxCell id="gjjCGxOiEG8Ti1tQG0iB-1" value="&lt;div&gt;&lt;font style=&quot;font-size: 24px;&quot;&gt;$$f$$&lt;/font&gt;&lt;/div&gt;" style="ellipse;whiteSpace=wrap;html=1;aspect=fixed;fillColor=none;" parent="1" vertex="1">
          <mxGeometry x="170" y="197" width="80" height="80" as="geometry" />
        </mxCell>
        <mxCell id="iW6FGo1nIYDNEF5uSiKR-1" value="$$h_{i,2}$$" style="edgeStyle=orthogonalEdgeStyle;rounded=0;orthogonalLoop=1;jettySize=auto;html=1;exitX=0;exitY=0;exitDx=0;exitDy=0;entryX=0;entryY=1;entryDx=0;entryDy=0;curved=1;fontSize=24;labelBackgroundColor=none;labelPosition=left;verticalLabelPosition=middle;align=right;verticalAlign=middle;" parent="1" source="gjjCGxOiEG8Ti1tQG0iB-1" target="gjjCGxOiEG8Ti1tQG0iB-1" edge="1">
          <mxGeometry relative="1" as="geometry">
            <Array as="points">
              <mxPoint x="182" y="187" />
              <mxPoint x="70" y="187" />
              <mxPoint x="70" y="307" />
              <mxPoint x="182" y="307" />
            </Array>
          </mxGeometry>
        </mxCell>
        <mxCell id="iW6FGo1nIYDNEF5uSiKR-4" value="" style="edgeStyle=orthogonalEdgeStyle;rounded=0;orthogonalLoop=1;jettySize=auto;html=1;" parent="1" source="iW6FGo1nIYDNEF5uSiKR-2" target="gjjCGxOiEG8Ti1tQG0iB-1" edge="1">
          <mxGeometry relative="1" as="geometry" />
        </mxCell>
        <mxCell id="iW6FGo1nIYDNEF5uSiKR-2" value="&lt;div&gt;&lt;font style=&quot;font-size: 24px;&quot;&gt;$$f$$&lt;/font&gt;&lt;/div&gt;" style="ellipse;whiteSpace=wrap;html=1;aspect=fixed;fillColor=none;" parent="1" vertex="1">
          <mxGeometry x="170" y="330" width="80" height="80" as="geometry" />
        </mxCell>
        <mxCell id="iW6FGo1nIYDNEF5uSiKR-3" value="$$h_{i,1}$$" style="edgeStyle=orthogonalEdgeStyle;rounded=0;orthogonalLoop=1;jettySize=auto;html=1;exitX=0;exitY=0;exitDx=0;exitDy=0;entryX=0;entryY=1;entryDx=0;entryDy=0;curved=1;fontSize=24;labelBackgroundColor=none;labelPosition=left;verticalLabelPosition=middle;align=right;verticalAlign=middle;" parent="1" source="iW6FGo1nIYDNEF5uSiKR-2" target="iW6FGo1nIYDNEF5uSiKR-2" edge="1">
          <mxGeometry relative="1" as="geometry">
            <Array as="points">
              <mxPoint x="182" y="320" />
              <mxPoint x="70" y="320" />
              <mxPoint x="70" y="440" />
              <mxPoint x="182" y="440" />
            </Array>
          </mxGeometry>
        </mxCell>
      </root>
    </mxGraphModel>
  </diagram>
</mxfile>
